Coordinates
version=1
nRows=7
nColumns=46
inDegrees=yes

Units are S.I. units (second, meters, Newtons, ...)
Angles are in degrees.

endheader
time	pelvis_tilt	pelvis_list	pelvis_rotation	pelvis_tx	pelvis_ty	pelvis_tz	bb_angle	bb_tx	bb_ty	bb_tz	hip_flexion_r	hip_adduction_r	hip_rotation_r	knee_angle_r	knee_angle_r_beta	ankle_angle_r	subtalar_angle_r	mtp_angle_r	crank_angle_r	hip_flexion_l	hip_adduction_l	hip_rotation_l	knee_angle_l	knee_angle_l_beta	ankle_angle_l	subtalar_angle_l	mtp_angle_l	crank_angle_l	lumbar_extension	lumbar_bending	lumbar_rotation	arm_flex_r	arm_add_r	arm_rot_r	elbow_flex_r	pro_sup_r	wrist_flex_r	wrist_dev_r	arm_flex_l	arm_add_l	arm_rot_l	elbow_flex_l	pro_sup_l	wrist_flex_l	wrist_dev_l
      7.50000000	    -16.25505974	      1.99599948	      5.59561212	      0.07065907	      1.10761928	     -0.27393110	      0.00000000	      0.50000000	      0.00000000	      0.25000000	     45.82851778	     -7.46618479	      0.98879101	     31.33451913	      0.54689053	    -14.22320878	    -10.92278933	      0.00000000	      0.00000000	     84.86415917	      1.32458530	      5.54834016	    112.15273621	      1.95743451	    -13.73331502	     -9.97032708	      0.00000000	      0.00000000	    -64.42705235	     -3.73220310	     -9.30177875	     89.45645290	    -21.67894452	     30.31563195	     61.25367530	     27.96609200	      0.00000000	      0.00000000	     89.64806366	    -24.58870628	     32.41953075	     74.23852026	     34.83639753	      0.00000000	      0.00000000
      7.50500000	    -16.31139832	      2.22523585	      6.21534102	      0.07090842	      1.10816353	     -0.27365960	      0.00000000	      0.50000000	      0.00000000	      0.25000000	     44.62626624	     -8.24752999	     -0.09069342	     30.09907409	      0.52532794	    -14.96520916	     -9.66057297	      0.00000000	      0.00000000	     86.13421360	      1.93005830	      5.47205224	    112.88660942	      1.97024302	    -13.07850951	     -9.39729861	      0.00000000	      0.00000000	    -64.46292021	     -3.56187156	     -9.58584365	     89.46067845	    -21.88721501	     30.45957668	     60.71698855	     28.00948937	      0.00000000	      0.00000000	     89.65647062	    -24.17287489	     32.45995103	     74.28087450	     34.71806612	      0.00000000	      0.00000000
      7.51000000	    -16.62029634	      2.54152336	      6.55824540	      0.07090701	      1.10820676	     -0.27290219	      0.00000000	      0.50000000	      0.00000000	      0.25000000	     43.84606634	     -8.81904257	     -0.61427431	     29.08693355	      0.50766276	    -15.66186129	     -8.77096027	      0.00000000	      0.00000000	     87.62678341	      2.25510771	      5.18642230	    113.47549518	      1.98052101	    -12.64637007	     -9.22945880	      0.00000000	      0.00000000	    -64.26377325	     -3.69606141	     -9.92325474	     89.43716695	    -22.05449153	     30.43952327	     60.53660298	     28.03599175	      0.00000000	      0.00000000	     89.66395518	    -23.89307812	     32.48204291	     74.35600528	     34.67288934	      0.00000000	      0.00000000
      7.51500000	    -16.78636775	      2.73156276	      7.02633894	      0.07078137	      1.10850132	     -0.27219359	      0.00000000	      0.50000000	      0.00000000	      0.25000000	     42.93709100	     -9.33405427	     -1.34364678	     28.22100513	      0.49254946	    -16.24281458	     -8.00996065	      0.00000000	      0.00000000	     88.96049183	      2.65974229	      5.02501588	    113.90972271	      1.98809971	    -12.27913464	     -9.08176819	      0.00000000	      0.00000000	    -64.19525545	     -3.66348753	    -10.17269816	     89.41104223	    -22.25158567	     30.41920483	     60.29278363	     28.04734445	      0.00000000	      0.00000000	     89.67223673	    -23.59192340	     32.49504475	     74.48215500	     34.63825213	      0.00000000	      0.00000000
      7.52000000	    -16.78661996	      2.76437962	      7.57018766	      0.07073646	      1.10896166	     -0.27202963	      0.00000000	      0.50000000	      0.00000000	      0.25000000	     41.93392630	     -9.80515666	     -2.39897155	     27.64271814	      0.48245645	    -16.52288709	     -7.11397339	      0.00000000	      0.00000000	     90.11303072	      3.17074303	      5.00690469	    114.24576487	      1.99396475	    -12.02061321	     -8.89742953	      0.00000000	      0.00000000	    -64.27458448	     -3.41860536	    -10.21509436	     89.41960770	    -22.58846150	     30.43088133	     59.93201193	     28.14920136	      0.00000000	      0.00000000	     89.67957725	    -23.14887596	     32.42347459	     74.62734409	     34.49142533	      0.00000000	      0.00000000
      7.52500000	    -17.01293571	      2.93620292	      7.85599483	      0.07052259	      1.10909699	     -0.27134202	      0.00000000	      0.50000000	      0.00000000	      0.25000000	     41.32194626	    -10.12522908	     -2.82942951	     27.23687117	      0.47537308	    -16.93870948	     -6.77094901	      0.00000000	      0.00000000	     91.40148469	      3.37967864	      4.73975329	    114.41875438	      1.99698399	    -11.79727702	     -8.96576089	      0.00000000	      0.00000000	    -64.15862476	     -3.48338137	    -10.40818941	     89.40014336	    -22.77993131	     30.36359751	     59.84529420	     28.17533809	      0.00000000	      0.00000000	     89.68873980	    -22.95542066	     32.39531359	     74.76854234	     34.46658389	      0.00000000	      0.00000000
      7.53000000	    -17.22629711	      3.08636654	      8.23963287	      0.07021803	      1.10928286	     -0.27098066	      0.00000000	      0.50000000	      0.00000000	      0.25000000	     40.77173345	    -10.48836266	     -3.30010464	     27.04796115	      0.47207598	    -17.21128570	     -6.53838171	      0.00000000	      0.00000000	     92.59665988	      3.71902608	      4.46299077	    114.43478799	      1.99726383	    -11.61963203	     -9.12962583	      0.00000000	      0.00000000	    -64.07914308	     -3.42981926	    -10.53426466	     89.38314452	    -23.04918037	     30.27754184	     59.71872515	     28.20290203	      0.00000000	      0.00000000	     89.69314836	    -22.69549945	     32.37365376	     75.03233392	     34.45371538	      0.00000000	      0.00000000
